# xmcd CD database file
#
# Track frame offsets:
#	150
#	11604
#	24653
#	37416
#	49987
#	65485
#	78604
#	93863
#	105550
#	114823
#	127474
#	138634
#	152513
#	163215
#	177576
#	186270
#	198324
#
# Disc length: 2797 seconds
#
# Revision: 0
# Processed by: cddbd v1.5.2PL0 Copyright (c) Steve Scherf et al.
# Submitted via: CDex 1.70beta2
#
DISCID=f60aeb11
DTITLE=Various Artist - Country Roots - CD12
DYEAR=2007
DGENRE=Country Classics
TTITLE0=Hank Williams - My Bucket's Got A Hole In It
TTITLE1=The Carter Family - Room In Heaven
TTITLE2=Merle Travis - I Am A Pilgrim
TTITLE3=Tex Ritter - Jingle Jangle Jingle
TTITLE4=Jimmie Rodgers - Mississippi Delta Blues
TTITLE5=Red Foley - Just A Closer Walk With Thee
TTITLE6=The Carter Family - I Have An Aged Mother
TTITLE7=Gene Autry - Dixie Cannonball
TTITLE8=Bob Wills - Little Liza Jane
TTITLE9=Roy Acuff - Night Train To Memphis
TTITLE10=Bill Haley And His Comets - ABC Boogie
TTITLE11=The Carter Family - Lonesome For You
TTITLE12=Gene Autry - Take Me Back
TTITLE13=Red Foley And Ernest Tubb - The Strange Little Girl
TTITLE14=Gene Autry - In A Little Spanish Town
TTITLE15=Jimmie Rodgers - Let Me Be Your Slide Track
TTITLE16=Kitty Wells And Roy Acuff - Goodbye Mr. Brown
EXTD=YEAR: 2007
EXTT0=
EXTT1=
EXTT2=
EXTT3=
EXTT4=
EXTT5=
EXTT6=
EXTT7=
EXTT8=
EXTT9=
EXTT10=
EXTT11=
EXTT12=
EXTT13=
EXTT14=
EXTT15=
EXTT16=
PLAYORDER=
